<svg width="25" height="20" viewBox="0 0 24 20" fill="#fff" xmlns="http://www.w3.org/2000/svg">
<path d="M13.2 4.80002C13.2 7.45128 11.0513 9.60004 8.4 9.60004C5.74875 9.60004 3.6 7.45128 3.6 4.80002C3.6 2.14876 5.74875 0 8.4 0C11.0513 0 13.2 2.14876 13.2 4.80002ZM0 18.0863C0 14.3926 2.9925 11.4 6.68625 11.4H10.1138C13.8075 11.4 16.8 14.3926 16.8 18.0863C16.8 18.7013 16.3012 19.2001 15.6862 19.2001H1.11375C0.49875 19.2001 0 18.7013 0 18.0863ZM18.9 11.7V9.30004H16.5C16.0012 9.30004 15.6 8.89878 15.6 8.40003C15.6 7.90128 16.0012 7.50003 16.5 7.50003H18.9V5.10002C18.9 4.60127 19.3013 4.20002 19.8 4.20002C20.2988 4.20002 20.7 4.60127 20.7 5.10002V7.50003H23.1C23.5988 7.50003 24 7.90128 24 8.40003C24 8.89878 23.5988 9.30004 23.1 9.30004H20.7V11.7C20.7 12.1988 20.2988 12.6 19.8 12.6C19.3013 12.6 18.9 12.1988 18.9 11.7Z"/>
</svg>
