<svg width="16" viewBox="0 0 16 20" xmlns="http://www.w3.org/2000/svg">
<path d="M13.375 18.8324C13.85 19.2274 14.515 19.3174 15.08 19.0524C15.645 18.7874 16 18.2224 16 17.6024V1.60244C16 0.982437 15.64 0.417437 15.08 0.152437C14.52 -0.112563 13.855 -0.0275628 13.375 0.372437L3.775 8.37244L3.2 8.85244V1.60244C3.2 0.717437 2.485 0.00243712 1.6 0.00243712C0.715 0.00243712 0 0.717437 0 1.60244V17.6024C0 18.4874 0.715 19.2024 1.6 19.2024C2.485 19.2024 3.2 18.4874 3.2 17.6024V10.3524L3.775 10.8324L13.375 18.8324Z" fill="#676767"/>
</svg>