<svg width="20" height="17" viewBox="0 0 16 17" fill="#fff" xmlns="http://www.w3.org/2000/svg">
<path d="M13.0006 6.50032C13.0006 7.93476 12.535 9.25983 11.7506 10.3349L15.707 14.2944C16.0977 14.6851 16.0977 15.3195 15.707 15.7101C15.3164 16.1008 14.682 16.1008 14.2913 15.7101L10.3349 11.7506C9.25983 12.5381 7.93476 13.0006 6.50032 13.0006C2.90952 13.0006 0 10.0911 0 6.50032C0 2.90952 2.90952 0 6.50032 0C10.0911 0 13.0006 2.90952 13.0006 6.50032ZM6.50032 11.0005C8.98481 11.0005 11.0005 8.98481 11.0005 6.50032C11.0005 4.01582 8.98481 2.0001 6.50032 2.0001C4.01582 2.0001 2.0001 4.01582 2.0001 6.50032C2.0001 8.98481 4.01582 11.0005 6.50032 11.0005Z"/>
</svg>
