<svg width="30" height="25" viewBox="0 0 16 13" fill="#fff" xmlns="http://www.w3.org/2000/svg">
<path d="M3.6 4C2.495 4 1.6 3.105 1.6 2C1.6 0.895 2.495 0 3.6 0C4.705 0 5.6 0.895 5.6 2C5.6 3.105 4.705 4 3.6 4ZM12.8 4C11.695 4 10.8 3.105 10.8 2C10.8 0.895 11.695 0 12.8 0C13.905 0 14.8 0.895 14.8 2C14.8 3.105 13.905 4 12.8 4ZM0 7.4675C0 5.995 1.195 4.8 2.6675 4.8H3.735C4.1325 4.8 4.51 4.8875 4.85 5.0425C4.8175 5.2225 4.8025 5.41 4.8025 5.6C4.8025 6.555 5.2225 7.4125 5.885 8C5.88 8 5.875 8 5.8675 8H0.5325C0.24 8 0 7.76 0 7.4675ZM10.1325 8C10.1275 8 10.1225 8 10.115 8C10.78 7.4125 11.1975 6.555 11.1975 5.6C11.1975 5.41 11.18 5.225 11.15 5.0425C11.49 4.885 11.8675 4.8 12.265 4.8H13.3325C14.805 4.8 16 5.995 16 7.4675C16 7.7625 15.76 8 15.4675 8H10.1325ZM10.4 5.6C10.4 6.925 9.325 8 8 8C6.675 8 5.6 6.925 5.6 5.6C5.6 4.275 6.675 3.2 8 3.2C9.325 3.2 10.4 4.275 10.4 5.6ZM3.2 12.1325C3.2 10.2925 4.6925 8.8 6.5325 8.8H9.4675C11.3075 8.8 12.8 10.2925 12.8 12.1325C12.8 12.5 12.5025 12.8 12.1325 12.8H3.8675C3.5 12.8 3.2 12.5025 3.2 12.1325V12.1325Z"/>
</svg>
